<svg id="Layer_1" data-name="Layer 1" xmlns="http://www.w3.org/2000/svg" viewBox="0 0 512 512"><title>database-shield-flat</title><path d="M0,256C0,114.61,114.61,0,256,0S512,114.63,512,256,397.38,512,256,512,0,397.39,0,256Z" fill="#00b6eb"/><path d="M151.73,266.14H261.91V254.55a17.28,17.28,0,0,1,17.26-17.26h46.34V219.8a11.62,11.62,0,0,0-11.59-11.59H151.73a11.62,11.62,0,0,0-11.59,11.59v34.76A11.62,11.62,0,0,0,151.73,266.14Z" fill="#fff"/><rect x="140.15" y="138.7" width="185.36" height="57.93" rx="11.59" ry="11.59" fill="#fff"/><path d="M261.91,322.9V277.72H151.73a11.62,11.62,0,0,0-11.59,11.59v34.76a11.62,11.62,0,0,0,11.59,11.59H264.91A28.24,28.24,0,0,1,261.91,322.9Z" fill="#fff"/><path d="M360.27,243h-81.1a11.62,11.62,0,0,0-11.59,11.59V322.9c0,7.53,3.48,13.9,9.27,18.54l42.86,31.86,42.86-31.86c5.79-4.63,9.27-11,9.27-18.54V254.55A11.62,11.62,0,0,0,360.27,243Z" fill="#fff"/></svg>