<?xml version="1.0" encoding="UTF-8"?>
<svg xmlns="http://www.w3.org/2000/svg" xmlns:xlink="http://www.w3.org/1999/xlink" width="64pt" height="64pt" viewBox="0 0 64 64" version="1.1">
<g id="surface3534137">
<path style=" stroke:none;fill-rule:nonzero;fill:rgb(0%,0%,0%);fill-opacity:1;" d="M 30.289062 10.027344 C 27.460938 9.878906 24.285156 10.3125 21.175781 11.390625 C 16.234375 13.105469 10.894531 15.800781 7.050781 19.3125 C 2.488281 23.492188 1.753906 27.128906 2.054688 28.652344 C 3.121094 34.050781 10.734375 37.570312 13.78125 40.175781 C 13.632812 40.257812 13.492188 40.328125 13.359375 40.402344 C 11.832031 41.144531 6.164062 44.058594 4.710938 47.195312 C 3.070312 50.75 4.980469 53.296875 6.238281 53.644531 C 10.15625 54.707031 14.035156 52.847656 16.1875 49.707031 C 18.34375 46.5625 18.082031 42.460938 17.089844 40.589844 C 17.078125 40.5625 17.0625 40.542969 17.050781 40.515625 C 17.445312 40.285156 17.847656 40.054688 18.25 39.824219 C 19.027344 39.375 19.789062 38.964844 20.453125 38.605469 C 20.078125 39.59375 19.804688 40.789062 19.664062 42.511719 C 19.496094 44.527344 20.347656 47.136719 21.453125 48.164062 C 21.941406 48.613281 22.53125 48.625 22.894531 48.625 C 24.1875 48.625 24.769531 47.578125 25.414062 46.332031 C 26.210938 44.808594 26.914062 43.042969 26.914062 43.042969 C 26.914062 43.042969 26.035156 47.824219 28.445312 47.824219 C 29.324219 47.824219 30.207031 46.714844 30.601562 46.148438 L 30.601562 46.15625 C 30.601562 46.15625 30.617188 46.121094 30.664062 46.046875 C 30.757812 45.910156 30.804688 45.828125 30.804688 45.828125 L 30.804688 45.800781 C 31.160156 45.203125 31.941406 43.839844 33.113281 41.585938 C 34.632812 38.671875 36.082031 35.03125 36.082031 35.03125 C 36.222656 35.832031 36.417969 36.621094 36.664062 37.394531 C 36.925781 38.265625 37.480469 39.21875 37.921875 40.144531 C 37.566406 40.621094 37.347656 40.894531 37.347656 40.894531 C 37.347656 40.902344 37.351562 40.910156 37.359375 40.914062 C 37.078125 41.28125 36.757812 41.671875 36.429688 42.058594 C 35.230469 43.453125 33.804688 45.050781 33.617188 45.507812 C 33.390625 46.046875 33.449219 46.449219 33.878906 46.761719 C 34.195312 47 34.761719 47.035156 35.351562 46.992188 C 36.429688 46.917969 37.1875 46.660156 37.554688 46.496094 C 38.230469 46.261719 38.867188 45.933594 39.445312 45.527344 C 40.617188 44.683594 41.332031 43.472656 41.265625 41.878906 C 41.226562 41 40.933594 40.117188 40.578125 39.292969 C 40.683594 39.148438 40.796875 38.992188 40.898438 38.835938 C 42.753906 36.1875 44.1875 33.28125 44.1875 33.28125 C 44.328125 34.082031 44.523438 34.871094 44.769531 35.644531 C 44.996094 36.386719 45.4375 37.203125 45.839844 38 C 44.097656 39.382812 43.015625 40.988281 42.640625 42.042969 C 41.945312 43.996094 42.492188 44.871094 43.515625 45.074219 C 43.976562 45.167969 44.628906 44.957031 45.117188 44.757812 C 45.839844 44.523438 46.523438 44.179688 47.140625 43.738281 C 48.3125 42.894531 49.445312 41.714844 49.371094 40.109375 C 49.34375 39.386719 49.140625 38.660156 48.867188 37.964844 C 50.339844 37.359375 52.25 37.03125 54.6875 37.304688 C 59.90625 37.902344 60.929688 41.089844 60.734375 42.417969 C 60.539062 43.746094 59.441406 44.492188 59.074219 44.710938 C 58.707031 44.929688 58.597656 45.015625 58.625 45.179688 C 58.671875 45.417969 58.839844 45.40625 59.148438 45.351562 C 59.582031 45.277344 61.882812 44.269531 61.988281 41.804688 C 62.136719 38.691406 59.078125 35.265625 53.652344 35.289062 L 53.644531 35.289062 C 51.761719 35.289062 49.90625 35.710938 48.214844 36.527344 C 47.660156 35.4375 47.089844 34.484375 46.996094 33.769531 C 46.882812 32.933594 46.765625 32.441406 46.894531 31.453125 C 47.027344 30.464844 47.617188 29.058594 47.605469 28.957031 C 47.59375 28.855469 47.472656 28.355469 46.265625 28.34375 C 45.058594 28.332031 44.015625 28.574219 43.894531 28.882812 C 43.679688 29.453125 43.515625 30.035156 43.398438 30.632812 C 43.183594 31.703125 40.980469 35.539062 39.734375 37.535156 C 39.324219 36.753906 38.976562 36.070312 38.902344 35.519531 C 38.789062 34.683594 38.667969 34.191406 38.796875 33.203125 C 38.929688 32.214844 39.523438 30.808594 39.511719 30.707031 C 39.5 30.605469 39.378906 30.105469 38.171875 30.09375 C 36.964844 30.082031 35.917969 30.324219 35.796875 30.632812 C 35.675781 30.945312 35.542969 31.675781 35.300781 32.382812 C 35.058594 33.089844 32.125 39.472656 31.355469 41.128906 C 30.960938 41.972656 30.621094 42.652344 30.378906 43.109375 C 30.339844 43.183594 30.316406 43.230469 30.296875 43.265625 C 30.324219 43.21875 30.34375 43.171875 30.34375 43.191406 C 30.136719 43.585938 30.015625 43.804688 30.015625 43.804688 L 30.015625 43.8125 C 29.855469 44.105469 29.679688 44.375 29.59375 44.375 C 29.539062 44.375 29.414062 43.605469 29.621094 42.550781 C 30.0625 40.332031 31.105469 36.886719 31.09375 36.765625 C 31.082031 36.703125 31.285156 36.105469 30.40625 35.785156 C 29.550781 35.484375 29.246094 35.988281 29.171875 35.988281 C 29.097656 35.988281 29.039062 36.171875 29.039062 36.171875 C 29.039062 36.171875 29.984375 32.285156 27.21875 32.285156 C 25.492188 32.285156 23.09375 34.136719 21.914062 35.8125 C 21.175781 36.207031 19.570312 37.0625 17.882812 37.96875 C 17.238281 38.316406 16.574219 38.671875 15.945312 39.011719 C 15.898438 38.964844 15.859375 38.921875 15.8125 38.875 C 12.457031 35.371094 6.261719 32.898438 6.523438 28.195312 C 6.617188 26.480469 7.230469 21.984375 18.4375 16.519531 C 27.625 12.046875 34.96875 13.273438 36.234375 16.003906 C 38.050781 19.898438 32.304688 27.152344 22.765625 28.195312 C 19.128906 28.589844 17.453125 27.054688 16.976562 26.539062 C 16.480469 26 16.402344 25.96875 16.214844 26.070312 C 15.90625 26.234375 16.101562 26.710938 16.214844 26.996094 C 16.496094 27.71875 17.75 28.855469 19.746094 29.496094 C 21.5 30.054688 25.527344 30.527344 30.683594 28.574219 C 36.476562 26.390625 40.898438 20.464844 39.578125 15.378906 C 38.738281 12.148438 35 10.277344 30.289062 10.027344 Z M 27.214844 34.578125 C 27.363281 34.589844 27.46875 34.644531 27.53125 34.746094 C 27.859375 35.289062 26.390625 39.277344 26.015625 40.175781 C 25.414062 41.617188 24.148438 45.285156 23.378906 45.089844 C 22.722656 44.925781 22.316406 42.128906 23.246094 39.378906 C 23.714844 37.996094 24.707031 36.34375 25.300781 35.703125 C 26.011719 34.925781 26.773438 34.546875 27.214844 34.578125 Z M 46.695312 39.101562 C 46.804688 39.421875 46.863281 39.757812 46.871094 40.09375 C 46.859375 42.15625 45.351562 42.925781 44.445312 43.246094 C 44.257812 43.117188 44.28125 42.6875 44.910156 41.347656 C 45.152344 40.824219 45.71875 39.945312 46.695312 39.101562 Z M 15.207031 41.375 C 15.984375 44.160156 15.234375 46.617188 13.417969 48.554688 C 11.695312 50.398438 9.273438 51.09375 8.234375 50.507812 C 7.117188 49.875 7.558594 47.160156 9.6875 45.195312 C 10.980469 44.003906 12.652344 42.90625 13.757812 42.226562 C 14.011719 42.082031 14.375 41.859375 14.824219 41.59375 C 14.898438 41.546875 14.9375 41.53125 14.9375 41.53125 C 15.023438 41.476562 15.113281 41.429688 15.207031 41.375 Z M 38.761719 41.695312 C 38.761719 41.742188 38.773438 41.789062 38.773438 41.84375 C 38.761719 43.484375 37.144531 44.589844 36.414062 45.03125 L 36.421875 45.03125 L 36.421875 45.035156 C 36.167969 45.164062 35.933594 45.242188 35.820312 45.179688 C 35.734375 45.132812 35.925781 44.960938 35.925781 44.960938 C 35.925781 44.960938 37.226562 43.59375 37.742188 42.96875 C 38.042969 42.601562 38.386719 42.171875 38.761719 41.695312 Z M 38.761719 41.695312 "/>
</g>
</svg>
